<svg xmlns="http://www.w3.org/2000/svg" xmlns:xlink="http://www.w3.org/1999/xlink" width="1366" zoomAndPan="magnify" viewBox="0 0 1024.5 576" height="768" preserveAspectRatio="xMidYMid meet" version="1.2"><defs><clipPath id="856565bea9"><path d="M 63.613281 158 L 279 158 L 279 428 L 63.613281 428 Z M 63.613281 158 "/></clipPath><clipPath id="804190e8ac"><path d="M 476 46.898438 L 965.882812 46.898438 L 965.882812 500 L 476 500 Z M 476 46.898438 "/></clipPath></defs><g id="293e9092d7"><g clip-rule="nonzero" clip-path="url(#856565bea9)"><path style=" stroke:none;fill-rule:nonzero;fill:#f205e2;fill-opacity:1;" d="M 171.042969 328.019531 C 171.042969 328.019531 164.691406 334.09375 164.433594 338.183594 C 164.386719 339.234375 164.558594 340.246094 164.945312 341.222656 C 165.15625 341.707031 165.589844 342.695312 166.46875 343.246094 C 167.890625 344.148438 169.796875 343.492188 170.535156 343.246094 C 176.910156 341.136719 170.035156 345.605469 183.75 340.207031 C 197.707031 334.691406 208.652344 329.027344 208.652344 329.027344 C 221.035156 322.617188 227.222656 319.421875 231.015625 316.324219 C 234.871094 313.167969 239.835938 311.34375 243.210938 307.683594 C 243.855469 306.984375 245.574219 305.027344 247.785156 305.140625 C 249.210938 305.214844 250.308594 306.203125 250.824219 306.664062 C 252.335938 308.015625 252.925781 309.578125 253.363281 310.734375 C 256.214844 318.234375 255.234375 314.371094 256.398438 318.355469 C 258.9375 326.9375 260.203125 331.230469 260.972656 336.652344 C 261.648438 341.507812 262.636719 348.347656 261.484375 356.984375 C 260.9375 361.058594 259.359375 371.933594 251.824219 382.902344 C 246.351562 390.871094 240.195312 395.304688 232.003906 401.199219 C 227.832031 404.289062 223.425781 406.996094 218.789062 409.332031 C 217.25 410.101562 211.101562 413.113281 198.96875 416.445312 C 193.910156 417.835938 189.394531 418.847656 174.570312 421.53125 C 160.976562 423.988281 154.179688 425.21875 151.191406 425.578125 C 134.027344 427.746094 120.828125 427.359375 113.070312 427.101562 C 104.972656 426.832031 98.535156 426.242188 91.726562 425.078125 C 81.441406 423.308594 76.207031 422.34375 71.90625 418.472656 C 64.820312 412.109375 64.050781 402.617188 63.773438 399.160156 C 63.148438 391.398438 65.347656 385.511719 67.332031 380.355469 C 69.476562 374.777344 71.714844 371.449219 78.511719 361.550781 C 87.566406 348.367188 92.089844 341.773438 93.25 340.203125 C 95.800781 336.75 103.84375 325.957031 116.121094 311.742188 C 128.019531 297.96875 137.269531 288.644531 149.160156 276.65625 C 150.40625 275.398438 167.660156 258.054688 179.144531 248.191406 C 181.054688 246.550781 189.03125 240.144531 191.847656 237.523438 C 192.980469 236.46875 194.152344 235.226562 195.40625 234.484375 C 196.132812 234.046875 196.6875 233.347656 197.429688 232.960938 C 197.664062 232.855469 197.832031 232.6875 197.9375 232.453125 C 197.996094 232.28125 197.996094 232.113281 197.9375 231.945312 C 197.894531 231.820312 197.808594 231.6875 197.429688 231.4375 C 197.128906 231.199219 196.789062 231.03125 196.417969 230.925781 C 196.082031 230.871094 195.746094 230.871094 195.40625 230.925781 L 188.324219 230.925781 C 176.730469 230.925781 170.023438 231.9375 170.023438 231.9375 C 162.972656 233.050781 156.195312 235.085938 149.695312 238.035156 C 143.757812 240.734375 143.285156 241.886719 139.53125 242.609375 C 130.824219 244.296875 123.496094 240.003906 122.757812 239.574219 C 113.925781 234.238281 111.574219 224.511719 110.054688 218.230469 C 108.433594 211.546875 108.804688 206.082031 109.042969 202.980469 C 109.378906 198.257812 109.71875 193.996094 112.078125 189.765625 C 114.8125 184.902344 119.019531 182.292969 124.277344 179.601562 C 135.714844 173.75 146.621094 170.3125 161.886719 166.386719 C 172.34375 163.6875 177.597656 162.335938 183.742188 161.304688 C 194 159.539062 204.335938 158.691406 214.746094 158.765625 C 228.949219 158.90625 236.148438 158.976562 245.238281 162.832031 C 251.539062 165.488281 257.128906 169.214844 262.007812 174.011719 C 267.339844 179.351562 270.226562 184.660156 272.175781 188.242188 C 274.035156 191.660156 275.617188 194.609375 276.75 198.914062 C 278.46875 205.4375 278.03125 210.75 277.761719 213.652344 C 277.421875 217.265625 276.691406 224.472656 272.167969 231.953125 C 270.023438 235.5 267.894531 237.6875 264.039062 241.609375 C 261.339844 244.359375 258.929688 246.480469 252.347656 251.773438 C 243.035156 259.253906 241.039062 260.496094 235.574219 264.988281 C 231.300781 268.503906 228.65625 270.921875 222.363281 276.675781 C 202.949219 294.421875 191.5625 304.816406 181.203125 315.8125 C 170.191406 327.503906 175.761719 323.507812 171.042969 328.019531 Z M 171.042969 328.019531 "/></g><path style="fill-rule:nonzero;fill:#f205e2;fill-opacity:1;stroke-width:1;stroke-linecap:butt;stroke-linejoin:miter;stroke:#d42300;stroke-opacity:1;stroke-miterlimit:10;" d="M 1205.539329 614.84354 C 1201.996223 594.881728 1196.982613 575.290438 1190.47534 556.092825 C 1179.324978 523.498568 1166.472536 500.19049 1157.325302 483.783363 C 1148.803322 468.464641 1141.335011 455.12589 1128.702565 438.579818 C 1115.201711 420.922183 1103.831352 406.055033 1083.510599 391.88261 C 1057.504666 373.715509 1026.994588 363.827234 1017.222101 364.765115 C 1013.100056 365.147214 1009.950629 364.52196 1003.663353 363.248295 C 1000.664449 362.646198 998.244485 361.974629 997.665546 360.249392 C 996.982398 358.304157 999.934986 352.294772 999.159208 354.251585 C 999.159208 354.251585 1006.314893 335.829751 1012.717956 321.113125 C 1022.536759 298.557668 1023.428325 301.243944 1032.309247 280.436882 C 1040.680703 260.810855 1039.789137 258.645624 1045.856416 248.803663 C 1049.897409 242.551124 1053.405779 236.020693 1056.404682 229.212373 C 1058.419389 224.858752 1059.92463 220.343029 1060.931984 215.665204 C 1061.487765 212.770509 1062.437225 206.656915 1062.437225 206.656915 L 1054.899441 191.592926 C 1052.166849 186.139322 1038.05232 159.994444 1012.717956 134.335874 C 988.252001 109.557291 972.724861 93.844891 946.429458 87.638667 C 913.221526 79.811413 885.131413 92.420701 875.625237 96.635376 C 847.09513 109.453082 831.359573 129.704363 819.885005 144.849404 C 802.146318 168.261691 795.094843 188.165608 785.241304 214.148384 C 756.884879 288.808338 762.685846 262.420305 738.544096 328.63933 C 721.8475 374.398657 695.760515 446.638647 672.255598 545.579296 C 656.658986 610.999386 649.005414 659.595513 642.104463 703.733811 C 633.837216 756.255143 628.464664 801.493424 627.028895 854.385278 C 625.349973 916.296998 630.409898 938.505092 636.025605 955.305898 C 641.351842 971.09935 656.172677 1008.788269 691.765837 1041.185687 C 706.771932 1054.837065 723.445371 1070.005263 749.022889 1075.840966 C 766.634209 1079.835644 792.431724 1080.333532 803.257881 1078.839869 C 809.255687 1078.017776 815.38086 1078.388297 821.332352 1077.334628 C 824.331255 1076.616744 827.330158 1076.616744 830.329061 1077.334628 C 833.073232 1078.179879 835.539511 1079.534596 837.739479 1081.3872 C 840.668909 1083.691377 843.227819 1086.354496 845.404629 1089.388135 C 849.399307 1094.714373 854.818175 1097.064864 864.984341 1101.453221 C 912.793111 1122.00555 952.438843 1117.999293 952.438843 1117.999293 C 978.074256 1115.405647 995.199267 1106.999455 1018.727342 1095.39752 C 1034.729211 1087.523952 1068.851867 1070.352626 1101.58507 1035.141565 C 1124.11737 1010.895606 1135.719304 989.139084 1149.787518 962.832103 C 1165.372552 933.433588 1177.923946 902.807723 1187.464858 870.93135 C 1205.122493 812.342739 1208.028766 765.541322 1210.055052 729.322908 C 1211.919235 695.999187 1213.679209 660.510236 1205.539329 614.84354 Z M 1017.222101 657.001867 C 1007.808555 721.275658 991.968788 769.003376 988.599364 778.995861 C 973.292221 824.430982 965.603913 847.136963 946.406301 873.907096 C 927.046585 900.908804 884.87668 947.629169 859.044428 937.185112 C 848.171957 932.796755 844.154121 919.897998 839.453138 904.035073 C 832.251138 879.754378 830.375376 852.18531 842.452041 791.037789 C 845.995147 773.113842 849.352992 756.174091 854.088712 738.157514 C 858.372859 721.854596 863.525415 705.841148 869.569537 690.10559 C 881.565149 658.669211 879.28413 674.115299 917.783564 595.194355 C 924.325573 581.774553 931.585466 566.583197 947.911542 553.024449 C 959.085061 543.842479 971.636456 537.312049 985.565724 533.433159 C 991.922473 535.656284 997.457128 539.176232 1002.158112 544.004582 C 1011.154821 553.325498 1013.204265 564.649541 1014.211619 571.110499 C 1022.212553 622.994999 1017.222101 657.001867 1017.222101 657.001867 Z M 1017.222101 657.001867 " transform="matrix(0.337363,0,0,0.337363,63.69417,46.898807)"/><path style=" stroke:none;fill-rule:nonzero;fill:#f205e2;fill-opacity:1;" d="M 788.554688 277.195312 C 787.675781 277.273438 787.488281 275.324219 785 272.113281 C 782.511719 268.902344 780.753906 268.402344 780.933594 267.03125 C 781.132812 265.511719 783.324219 265.589844 786.523438 262.964844 C 789.625 260.417969 790.28125 258.121094 791.097656 258.386719 C 792.203125 258.753906 791.648438 263.15625 791.097656 267.539062 C 790.476562 272.464844 789.898438 277.074219 788.554688 277.195312 Z M 788.554688 277.195312 "/><g clip-rule="nonzero" clip-path="url(#804190e8ac)"><path style=" stroke:none;fill-rule:nonzero;fill:#f205e2;fill-opacity:1;" d="M 965.425781 139.460938 C 965.257812 139.003906 964.726562 137.574219 963.402344 136.921875 C 961.773438 136.121094 959.921875 136.921875 958.824219 137.425781 C 953.703125 139.8125 951.148438 141.003906 948.152344 144.035156 C 943.144531 149.097656 933.644531 151.480469 914.609375 156.230469 C 901.335938 159.546875 901.914062 157.828125 894.789062 159.789062 C 892.761719 160.34375 890.226562 160.332031 885.128906 160.300781 C 884.347656 160.300781 882.886719 160.265625 882.09375 159.289062 C 881.949219 159.113281 881.417969 158.402344 881.585938 156.25 C 881.691406 154.839844 882.03125 153.484375 882.597656 152.1875 C 884.136719 148.945312 884.773438 145.335938 886.15625 142.023438 C 888.753906 135.804688 888.234375 133.925781 891.75 122.707031 C 894.472656 114.007812 897.242188 107.300781 898.863281 103.398438 C 900.96875 98.335938 902.605469 94.390625 904.960938 89.671875 C 906.554688 86.488281 907.296875 82.789062 909.535156 80.019531 C 909.9375 79.515625 911.039062 78.226562 911.058594 76.457031 C 911.074219 75.214844 910.554688 74.257812 910.046875 73.421875 C 907.585938 69.320312 905.472656 67.324219 905.472656 67.324219 C 902.738281 64.738281 900.710938 63.34375 897.851562 61.226562 C 890.648438 55.894531 890.933594 55.433594 887.175781 53.09375 C 884.785156 51.605469 881.871094 49.789062 878.027344 48.519531 C 869.359375 45.652344 861.621094 47.429688 859.222656 48.011719 C 850.425781 50.144531 844.960938 55.027344 841.433594 58.175781 C 837.308594 61.816406 833.914062 66.042969 831.25 70.851562 C 829.097656 74.859375 827.570312 79.097656 826.675781 83.558594 C 821.554688 107.570312 807.085938 166.484375 805.839844 171.484375 C 803.316406 181.578125 801.453125 184.941406 801.769531 189.273438 C 801.832031 190.046875 802.078125 192.34375 800.757812 194.351562 C 800.25 195.132812 799.429688 195.980469 796.691406 197.390625 C 794.738281 198.421875 792.703125 199.269531 790.59375 199.929688 C 781.972656 202.394531 782.832031 203.191406 776.871094 204.503906 C 768.175781 206.417969 768.964844 204.148438 762.132812 206.03125 C 760.515625 206.476562 757.257812 207.492188 754.507812 206.03125 C 754.066406 205.796875 752.96875 205.191406 752.484375 204.003906 C 751.808594 202.335938 752.71875 200.515625 752.992188 199.9375 C 754.996094 195.738281 754.519531 190.757812 755.535156 186.214844 C 757.644531 176.769531 758.707031 172.046875 759.09375 170.460938 C 763.71875 151.386719 762.644531 151.90625 765.699219 140.472656 C 768.902344 128.472656 774.957031 109.636719 777.390625 103.878906 C 778.496094 101.265625 778.789062 98.351562 779.929688 95.75 C 780.421875 94.789062 780.589844 93.777344 780.4375 92.710938 C 780.128906 91.054688 778.855469 90.035156 778.414062 89.675781 C 774.425781 86.394531 776.609375 86.238281 768.25 79.511719 C 762.207031 74.648438 758.703125 71.828125 753.003906 69.347656 C 749.785156 67.945312 746.882812 66.683594 742.839844 66.3125 C 735.753906 65.636719 730.253906 68.140625 726.574219 69.871094 C 715.9375 74.863281 709.964844 82.785156 706.753906 87.148438 C 701.144531 94.769531 698.636719 101.496094 696.082031 108.496094 C 693.757812 114.863281 693.109375 118.210938 686.933594 148.136719 C 684.320312 160.792969 684.195312 161.367188 683.375 165.417969 C 681.792969 173.230469 680.003906 182.171875 677.78125 193.882812 C 674.164062 213.136719 672.355469 222.765625 672.191406 225.390625 C 671.855469 230.867188 669.492188 236.167969 669.652344 241.65625 C 669.675781 242.40625 669.808594 245.070312 668.128906 246.734375 C 667.667969 247.148438 667.160156 247.484375 666.601562 247.746094 C 664.675781 248.800781 663.375 249.132812 661.519531 249.773438 C 658.105469 250.964844 657.613281 251.550781 655.421875 251.796875 C 653.851562 251.980469 653.003906 251.796875 652.386719 251.285156 C 651.792969 250.742188 651.453125 250.066406 651.375 249.261719 L 650.867188 246.71875 C 650.609375 245.4375 649.238281 241.070312 645.277344 236.046875 C 642.507812 232.539062 640.046875 229.417969 635.617188 227.410156 C 630.519531 225.089844 625.785156 225.601562 623.421875 225.882812 C 613.679688 227.050781 607.105469 233.203125 603.09375 237.0625 C 592.242188 247.5 588.25 259.472656 585.808594 267.050781 C 583.75 273.460938 579.867188 286.03125 582.253906 301.101562 C 583.390625 308.289062 586.445312 319.125 590.386719 321.941406 C 592.925781 323.753906 593.605469 324.84375 594.960938 327.019531 C 595.460938 327.804688 595.800781 328.652344 595.972656 329.566406 C 596.109375 330.410156 596.109375 331.257812 595.972656 332.105469 C 594.234375 342.226562 587.332031 353.960938 587.332031 353.960938 C 578.71875 368.613281 578.84375 371.105469 573.101562 376.828125 C 566.730469 383.1875 563.484375 383.207031 561.921875 382.929688 C 557.953125 382.226562 555.511719 377.964844 554.296875 375.8125 C 552.230469 372.1875 551.679688 368.792969 551.261719 364.125 C 550.210938 352.769531 550.75 345.320312 550.75 345.320312 C 551.0625 341.078125 551.714844 334.210938 554.3125 320.414062 C 557.398438 303.996094 560.589844 291.84375 561.933594 286.871094 C 563.28125 281.898438 565.082031 275.273438 568.035156 266.542969 C 569.582031 261.953125 571.707031 255.703125 575.148438 247.738281 C 577.867188 241.4375 579.84375 237.773438 583.789062 230.457031 C 586.097656 226.171875 589.039062 220.957031 594.464844 217.242188 C 596.507812 215.839844 598.421875 214.988281 600.558594 215.21875 C 602.839844 215.457031 605.191406 216.90625 606.660156 218.777344 C 608.039062 220.535156 607.929688 221.765625 609.199219 222.335938 C 610.632812 222.980469 612.394531 222.152344 613.773438 221.320312 C 620.917969 217.011719 624.957031 209.632812 624.957031 209.632812 C 628.332031 203.464844 632.71875 195.464844 631.054688 184.726562 C 630.609375 181.828125 629.78125 179.039062 628.574219 176.363281 C 627.367188 173.691406 625.820312 171.226562 623.9375 168.972656 C 614.675781 158.007812 601.050781 157.414062 598.019531 157.285156 C 587.511719 156.824219 579.101562 160.839844 573.117188 164.398438 C 561.585938 171.253906 541.1875 187.050781 517.207031 228.945312 C 501.933594 255.65625 490.5625 283.9375 483.105469 313.785156 C 477.476562 336.5 476.695312 350.292969 477.003906 361.054688 C 477.339844 372.941406 477.90625 387.746094 485.644531 404.761719 C 489.019531 412.183594 496.167969 427.402344 512.582031 438.816406 C 518.265625 442.769531 526.898438 448.625 539.515625 449.996094 C 555.734375 451.765625 568.589844 445.058594 573.570312 442.371094 C 578.460938 439.742188 581.726562 437.164062 584.75 434.75 C 591.09375 429.691406 598.972656 422.210938 609.65625 406.796875 C 628.398438 379.753906 638.605469 353.074219 640.660156 343.265625 C 641.628906 338.640625 643.066406 334.125 644.214844 329.542969 C 644.910156 326.554688 645.921875 323.671875 647.25 320.90625 C 648.148438 319.066406 648.878906 317.582031 650.289062 315.820312 C 653.324219 312.054688 655.566406 312.003906 657.910156 309.722656 C 658.082031 309.558594 658.554688 309.082031 658.921875 309.214844 C 659.367188 309.371094 659.417969 310.316406 659.433594 310.742188 C 659.578125 314.984375 658.921875 317.347656 658.921875 317.347656 C 658.195312 319.976562 658.316406 322.777344 657.910156 325.476562 C 652.539062 361.003906 654.875 407.8125 654.875 407.8125 C 656.523438 439.035156 657.648438 456.730469 668.089844 475.410156 C 679.363281 495.570312 691.125 498.3125 693.503906 498.789062 C 699.644531 500.019531 706.820312 498.929688 707.734375 498.789062 C 711.128906 498.25 716.917969 496.941406 724.503906 492.691406 C 745.738281 480.785156 761.613281 458.128906 761.613281 458.128906 C 770.890625 444.886719 775.085938 433.945312 782.957031 413.402344 C 788.765625 398.261719 791.566406 385.785156 791.597656 384.433594 C 791.652344 383.5625 791.820312 382.714844 792.109375 381.894531 C 792.304688 381.21875 792.445312 380.882812 792.617188 380.882812 C 792.878906 380.882812 793.074219 381.695312 793.125 381.894531 C 793.550781 383.582031 797.480469 396.917969 802.273438 404.253906 C 803.832031 406.640625 806.851562 411.140625 812.4375 413.402344 C 816.058594 414.871094 819.523438 414.90625 822.09375 414.929688 C 825.722656 414.929688 829.28125 414.421875 832.765625 413.402344 C 832.765625 413.402344 835.101562 412.765625 837.339844 411.878906 C 867.15625 400.070312 894.773438 342.25 894.773438 342.25 C 897.328125 336.894531 910.011719 309.902344 917.132812 274.148438 C 917.132812 274.148438 923.054688 244.429688 915.609375 224.84375 C 913.101562 218.238281 911.839844 214.933594 909.511719 213.15625 C 908.40625 212.316406 905.976562 210.792969 905.953125 208.582031 C 905.953125 207.941406 906.144531 207.195312 906.964844 206.039062 C 909.273438 202.828125 912.839844 201.550781 913.066406 201.464844 C 916.707031 200.152344 919.3125 196.652344 933.90625 183.679688 C 949.605469 169.71875 956.917969 164.589844 960.839844 157.25 C 962.4375 154.269531 961.492188 154.621094 964.910156 145.5625 C 965.40625 144.265625 966.320312 141.878906 965.425781 139.460938 Z M 740.277344 388.5 C 736.539062 393.515625 729.679688 402.730469 725.027344 401.207031 C 722.460938 400.367188 719.222656 395.808594 723.003906 346.824219 C 725.570312 313.484375 726.9375 296.796875 731.136719 296 C 738.457031 294.609375 753.453125 321.257812 753.496094 347.839844 C 753.496094 352.050781 753.152344 371.199219 740.277344 388.5 Z M 878.273438 280.476562 C 878.003906 284.085938 876.457031 300.472656 864.28125 314.457031 C 860.746094 318.507812 854.265625 325.957031 850.378906 324.347656 C 848.234375 323.457031 845.753906 319.355469 852.207031 277.605469 C 856.589844 249.195312 858.863281 234.980469 862.511719 234.578125 C 868.878906 233.867188 879.980469 257.691406 878.273438 280.476562 Z M 878.273438 280.476562 "/></g><g style="fill:#5005f2;fill-opacity:1;"><g transform="translate(57.571905, 508.805898)"><path style="stroke:none" d="M 21.328125 0 C 20.429688 0 19.71875 -0.234375 19.1875 -0.703125 C 18.664062 -1.179688 18.300781 -1.738281 18.09375 -2.375 L 1.96875 -52.921875 C 1.863281 -53.179688 1.8125 -53.414062 1.8125 -53.625 C 1.8125 -54.050781 1.984375 -54.429688 2.328125 -54.765625 C 2.671875 -55.109375 3.078125 -55.28125 3.546875 -55.28125 L 13.34375 -55.28125 C 14.1875 -55.28125 14.84375 -55.046875 15.3125 -54.578125 C 15.789062 -54.109375 16.082031 -53.660156 16.1875 -53.234375 L 27.40625 -16.75 L 38.546875 -53.234375 C 38.703125 -53.660156 39.003906 -54.109375 39.453125 -54.578125 C 39.898438 -55.046875 40.546875 -55.28125 41.390625 -55.28125 L 51.265625 -55.28125 C 51.679688 -55.28125 52.0625 -55.109375 52.40625 -54.765625 C 52.75 -54.429688 52.921875 -54.050781 52.921875 -53.625 C 52.921875 -53.414062 52.867188 -53.179688 52.765625 -52.921875 L 36.65625 -2.375 C 36.488281 -1.738281 36.140625 -1.179688 35.609375 -0.703125 C 35.085938 -0.234375 34.351562 0 33.40625 0 Z M 21.328125 0 "/></g></g><g style="fill:#5005f2;fill-opacity:1;"><g transform="translate(111.124441, 508.805898)"><path style="stroke:none" d="M 6.640625 0 C 6.054688 0 5.578125 -0.195312 5.203125 -0.59375 C 4.835938 -0.988281 4.65625 -1.445312 4.65625 -1.96875 L 4.65625 -39.09375 C 4.65625 -39.675781 4.835938 -40.148438 5.203125 -40.515625 C 5.578125 -40.890625 6.054688 -41.078125 6.640625 -41.078125 L 15.953125 -41.078125 C 16.535156 -41.078125 17.007812 -40.890625 17.375 -40.515625 C 17.738281 -40.148438 17.921875 -39.675781 17.921875 -39.09375 L 17.921875 -1.96875 C 17.921875 -1.445312 17.738281 -0.988281 17.375 -0.59375 C 17.007812 -0.195312 16.535156 0 15.953125 0 Z M 6.5625 -47 C 5.976562 -47 5.5 -47.179688 5.125 -47.546875 C 4.757812 -47.910156 4.578125 -48.382812 4.578125 -48.96875 L 4.578125 -56.078125 C 4.578125 -56.609375 4.757812 -57.066406 5.125 -57.453125 C 5.5 -57.847656 5.976562 -58.046875 6.5625 -58.046875 L 16.03125 -58.046875 C 16.5625 -58.046875 17.023438 -57.847656 17.421875 -57.453125 C 17.816406 -57.066406 18.015625 -56.609375 18.015625 -56.078125 L 18.015625 -48.96875 C 18.015625 -48.382812 17.816406 -47.910156 17.421875 -47.546875 C 17.023438 -47.179688 16.5625 -47 16.03125 -47 Z M 6.5625 -47 "/></g></g><g style="fill:#5005f2;fill-opacity:1;"><g transform="translate(136.163127, 508.805898)"><path style="stroke:none" d="M 6.640625 0 C 6.054688 0 5.578125 -0.195312 5.203125 -0.59375 C 4.835938 -0.988281 4.65625 -1.445312 4.65625 -1.96875 L 4.65625 -39.09375 C 4.65625 -39.625 4.835938 -40.085938 5.203125 -40.484375 C 5.578125 -40.878906 6.054688 -41.078125 6.640625 -41.078125 L 15.71875 -41.078125 C 16.300781 -41.078125 16.785156 -40.878906 17.171875 -40.484375 C 17.566406 -40.085938 17.765625 -39.625 17.765625 -39.09375 L 17.765625 -35.9375 C 19.140625 -37.570312 20.8125 -38.835938 22.78125 -39.734375 C 24.757812 -40.628906 26.988281 -41.078125 29.46875 -41.078125 L 32.9375 -41.078125 C 33.519531 -41.078125 33.992188 -40.890625 34.359375 -40.515625 C 34.722656 -40.148438 34.90625 -39.675781 34.90625 -39.09375 L 34.90625 -30.96875 C 34.90625 -30.4375 34.722656 -29.972656 34.359375 -29.578125 C 33.992188 -29.179688 33.519531 -28.984375 32.9375 -28.984375 L 25.28125 -28.984375 C 23.113281 -28.984375 21.4375 -28.390625 20.25 -27.203125 C 19.070312 -26.023438 18.484375 -24.351562 18.484375 -22.1875 L 18.484375 -1.96875 C 18.484375 -1.445312 18.285156 -0.988281 17.890625 -0.59375 C 17.492188 -0.195312 17.003906 0 16.421875 0 Z M 6.640625 0 "/></g></g><g style="fill:#5005f2;fill-opacity:1;"><g transform="translate(172.022817, 508.805898)"><path style="stroke:none" d="M 25.671875 0 C 22.296875 0 19.382812 -0.535156 16.9375 -1.609375 C 14.488281 -2.691406 12.601562 -4.378906 11.28125 -6.671875 C 9.96875 -8.960938 9.3125 -11.925781 9.3125 -15.5625 L 9.3125 -30.71875 L 3.15625 -30.71875 C 2.582031 -30.71875 2.097656 -30.898438 1.703125 -31.265625 C 1.304688 -31.640625 1.109375 -32.117188 1.109375 -32.703125 L 1.109375 -39.09375 C 1.109375 -39.675781 1.304688 -40.148438 1.703125 -40.515625 C 2.097656 -40.890625 2.582031 -41.078125 3.15625 -41.078125 L 9.3125 -41.078125 L 9.3125 -54.109375 C 9.3125 -54.679688 9.507812 -55.148438 9.90625 -55.515625 C 10.300781 -55.890625 10.765625 -56.078125 11.296875 -56.078125 L 20.453125 -56.078125 C 21.035156 -56.078125 21.507812 -55.890625 21.875 -55.515625 C 22.25 -55.148438 22.4375 -54.679688 22.4375 -54.109375 L 22.4375 -41.078125 L 32.296875 -41.078125 C 32.878906 -41.078125 33.367188 -40.890625 33.765625 -40.515625 C 34.160156 -40.148438 34.359375 -39.675781 34.359375 -39.09375 L 34.359375 -32.703125 C 34.359375 -32.117188 34.160156 -31.640625 33.765625 -31.265625 C 33.367188 -30.898438 32.878906 -30.71875 32.296875 -30.71875 L 22.4375 -30.71875 L 22.4375 -16.671875 C 22.4375 -14.878906 22.773438 -13.457031 23.453125 -12.40625 C 24.140625 -11.351562 25.300781 -10.828125 26.9375 -10.828125 L 33.015625 -10.828125 C 33.597656 -10.828125 34.070312 -10.640625 34.4375 -10.265625 C 34.800781 -9.898438 34.984375 -9.425781 34.984375 -8.84375 L 34.984375 -1.96875 C 34.984375 -1.445312 34.800781 -0.988281 34.4375 -0.59375 C 34.070312 -0.195312 33.597656 0 33.015625 0 Z M 25.671875 0 "/></g></g><g style="fill:#5005f2;fill-opacity:1;"><g transform="translate(208.909324, 508.805898)"><path style="stroke:none" d="M 19.75 0.796875 C 16.75 0.796875 14.078125 0.113281 11.734375 -1.25 C 9.390625 -2.625 7.554688 -4.640625 6.234375 -7.296875 C 4.921875 -9.960938 4.265625 -13.21875 4.265625 -17.0625 L 4.265625 -39.09375 C 4.265625 -39.675781 4.445312 -40.148438 4.8125 -40.515625 C 5.1875 -40.890625 5.660156 -41.078125 6.234375 -41.078125 L 16.109375 -41.078125 C 16.691406 -41.078125 17.179688 -40.890625 17.578125 -40.515625 C 17.972656 -40.148438 18.171875 -39.675781 18.171875 -39.09375 L 18.171875 -17.53125 C 18.171875 -12.375 20.457031 -9.796875 25.03125 -9.796875 C 27.195312 -9.796875 28.921875 -10.46875 30.203125 -11.8125 C 31.492188 -13.15625 32.140625 -15.0625 32.140625 -17.53125 L 32.140625 -39.09375 C 32.140625 -39.675781 32.320312 -40.148438 32.6875 -40.515625 C 33.0625 -40.890625 33.539062 -41.078125 34.125 -41.078125 L 44 -41.078125 C 44.570312 -41.078125 45.039062 -40.890625 45.40625 -40.515625 C 45.78125 -40.148438 45.96875 -39.675781 45.96875 -39.09375 L 45.96875 -1.96875 C 45.96875 -1.445312 45.78125 -0.988281 45.40625 -0.59375 C 45.039062 -0.195312 44.570312 0 44 0 L 34.828125 0 C 34.304688 0 33.847656 -0.195312 33.453125 -0.59375 C 33.054688 -0.988281 32.859375 -1.445312 32.859375 -1.96875 L 32.859375 -4.96875 C 31.484375 -3.070312 29.703125 -1.632812 27.515625 -0.65625 C 25.335938 0.3125 22.75 0.796875 19.75 0.796875 Z M 19.75 0.796875 "/></g></g><g style="fill:#5005f2;fill-opacity:1;"><g transform="translate(259.539426, 508.805898)"><path style="stroke:none" d="M 16.984375 0.796875 C 14.140625 0.796875 11.597656 0.253906 9.359375 -0.828125 C 7.117188 -1.910156 5.335938 -3.375 4.015625 -5.21875 C 2.703125 -7.0625 2.046875 -9.140625 2.046875 -11.453125 C 2.046875 -15.191406 3.570312 -18.148438 6.625 -20.328125 C 9.6875 -22.515625 13.742188 -24.003906 18.796875 -24.796875 L 28.671875 -26.296875 L 28.671875 -27.40625 C 28.671875 -29.300781 28.273438 -30.75 27.484375 -31.75 C 26.691406 -32.75 25.242188 -33.25 23.140625 -33.25 C 21.671875 -33.25 20.472656 -32.957031 19.546875 -32.375 C 18.628906 -31.800781 17.90625 -31.015625 17.375 -30.015625 C 16.90625 -29.328125 16.25 -28.984375 15.40625 -28.984375 L 6.5625 -28.984375 C 5.976562 -28.984375 5.523438 -29.15625 5.203125 -29.5 C 4.890625 -29.84375 4.757812 -30.25 4.8125 -30.71875 C 4.8125 -31.664062 5.164062 -32.757812 5.875 -34 C 6.59375 -35.238281 7.6875 -36.460938 9.15625 -37.671875 C 10.632812 -38.878906 12.53125 -39.878906 14.84375 -40.671875 C 17.164062 -41.460938 19.984375 -41.859375 23.296875 -41.859375 C 26.671875 -41.859375 29.566406 -41.460938 31.984375 -40.671875 C 34.410156 -39.878906 36.382812 -38.773438 37.90625 -37.359375 C 39.4375 -35.941406 40.554688 -34.269531 41.265625 -32.34375 C 41.972656 -30.425781 42.328125 -28.304688 42.328125 -25.984375 L 42.328125 -1.96875 C 42.328125 -1.445312 42.128906 -0.988281 41.734375 -0.59375 C 41.347656 -0.195312 40.890625 0 40.359375 0 L 31.203125 0 C 30.617188 0 30.140625 -0.195312 29.765625 -0.59375 C 29.398438 -0.988281 29.21875 -1.445312 29.21875 -1.96875 L 29.21875 -4.734375 C 28.539062 -3.734375 27.617188 -2.8125 26.453125 -1.96875 C 25.296875 -1.125 23.941406 -0.453125 22.390625 0.046875 C 20.835938 0.546875 19.035156 0.796875 16.984375 0.796875 Z M 20.6875 -8.21875 C 22.21875 -8.21875 23.601562 -8.546875 24.84375 -9.203125 C 26.082031 -9.859375 27.054688 -10.882812 27.765625 -12.28125 C 28.472656 -13.675781 28.828125 -15.425781 28.828125 -17.53125 L 28.828125 -18.640625 L 22.109375 -17.453125 C 19.640625 -17.035156 17.835938 -16.390625 16.703125 -15.515625 C 15.566406 -14.648438 15 -13.640625 15 -12.484375 C 15 -11.585938 15.265625 -10.820312 15.796875 -10.1875 C 16.328125 -9.550781 17.023438 -9.0625 17.890625 -8.71875 C 18.753906 -8.382812 19.6875 -8.21875 20.6875 -8.21875 Z M 20.6875 -8.21875 "/></g></g><g style="fill:#5005f2;fill-opacity:1;"><g transform="translate(306.141234, 508.805898)"><path style="stroke:none" d="M 6.640625 0 C 6.054688 0 5.578125 -0.195312 5.203125 -0.59375 C 4.835938 -0.988281 4.65625 -1.445312 4.65625 -1.96875 L 4.65625 -54.109375 C 4.65625 -54.679688 4.835938 -55.148438 5.203125 -55.515625 C 5.578125 -55.890625 6.054688 -56.078125 6.640625 -56.078125 L 15.953125 -56.078125 C 16.535156 -56.078125 17.007812 -55.890625 17.375 -55.515625 C 17.738281 -55.148438 17.921875 -54.679688 17.921875 -54.109375 L 17.921875 -1.96875 C 17.921875 -1.445312 17.738281 -0.988281 17.375 -0.59375 C 17.007812 -0.195312 16.535156 0 15.953125 0 Z M 6.640625 0 "/></g></g><g style="fill:#5005f2;fill-opacity:1;"><g transform="translate(331.416887, 508.805898)"><path style="stroke:none" d="M 6.640625 0 C 6.054688 0 5.578125 -0.195312 5.203125 -0.59375 C 4.835938 -0.988281 4.65625 -1.445312 4.65625 -1.96875 L 4.65625 -39.09375 C 4.65625 -39.675781 4.835938 -40.148438 5.203125 -40.515625 C 5.578125 -40.890625 6.054688 -41.078125 6.640625 -41.078125 L 15.953125 -41.078125 C 16.535156 -41.078125 17.007812 -40.890625 17.375 -40.515625 C 17.738281 -40.148438 17.921875 -39.675781 17.921875 -39.09375 L 17.921875 -1.96875 C 17.921875 -1.445312 17.738281 -0.988281 17.375 -0.59375 C 17.007812 -0.195312 16.535156 0 15.953125 0 Z M 6.5625 -47 C 5.976562 -47 5.5 -47.179688 5.125 -47.546875 C 4.757812 -47.910156 4.578125 -48.382812 4.578125 -48.96875 L 4.578125 -56.078125 C 4.578125 -56.609375 4.757812 -57.066406 5.125 -57.453125 C 5.5 -57.847656 5.976562 -58.046875 6.5625 -58.046875 L 16.03125 -58.046875 C 16.5625 -58.046875 17.023438 -57.847656 17.421875 -57.453125 C 17.816406 -57.066406 18.015625 -56.609375 18.015625 -56.078125 L 18.015625 -48.96875 C 18.015625 -48.382812 17.816406 -47.910156 17.421875 -47.546875 C 17.023438 -47.179688 16.5625 -47 16.03125 -47 Z M 6.5625 -47 "/></g></g><g style="fill:#5005f2;fill-opacity:1;"><g transform="translate(355.270736, 508.805898)"><path style="stroke:none" d="M 4.96875 0 C 4.445312 0 3.988281 -0.195312 3.59375 -0.59375 C 3.195312 -0.988281 3 -1.445312 3 -1.96875 L 3 -8.140625 C 3 -8.710938 3.117188 -9.222656 3.359375 -9.671875 C 3.597656 -10.117188 3.898438 -10.503906 4.265625 -10.828125 L 22.75 -30.890625 L 5.6875 -30.890625 C 5.101562 -30.890625 4.613281 -31.070312 4.21875 -31.4375 C 3.832031 -31.800781 3.640625 -32.273438 3.640625 -32.859375 L 3.640625 -39.09375 C 3.640625 -39.675781 3.832031 -40.148438 4.21875 -40.515625 C 4.613281 -40.890625 5.101562 -41.078125 5.6875 -41.078125 L 37.4375 -41.078125 C 37.96875 -41.078125 38.425781 -40.890625 38.8125 -40.515625 C 39.207031 -40.148438 39.40625 -39.675781 39.40625 -39.09375 L 39.40625 -32.390625 C 39.40625 -31.910156 39.300781 -31.484375 39.09375 -31.109375 C 38.882812 -30.742188 38.625 -30.378906 38.3125 -30.015625 L 20.296875 -10.1875 L 39.015625 -10.1875 C 39.597656 -10.1875 40.085938 -10 40.484375 -9.625 C 40.878906 -9.257812 41.078125 -8.789062 41.078125 -8.21875 L 41.078125 -1.96875 C 41.078125 -1.445312 40.878906 -0.988281 40.484375 -0.59375 C 40.085938 -0.195312 39.597656 0 39.015625 0 Z M 4.96875 0 "/></g></g><g style="fill:#5005f2;fill-opacity:1;"><g transform="translate(398.950076, 508.805898)"><path style="stroke:none" d="M 16.984375 0.796875 C 14.140625 0.796875 11.597656 0.253906 9.359375 -0.828125 C 7.117188 -1.910156 5.335938 -3.375 4.015625 -5.21875 C 2.703125 -7.0625 2.046875 -9.140625 2.046875 -11.453125 C 2.046875 -15.191406 3.570312 -18.148438 6.625 -20.328125 C 9.6875 -22.515625 13.742188 -24.003906 18.796875 -24.796875 L 28.671875 -26.296875 L 28.671875 -27.40625 C 28.671875 -29.300781 28.273438 -30.75 27.484375 -31.75 C 26.691406 -32.75 25.242188 -33.25 23.140625 -33.25 C 21.671875 -33.25 20.472656 -32.957031 19.546875 -32.375 C 18.628906 -31.800781 17.90625 -31.015625 17.375 -30.015625 C 16.90625 -29.328125 16.25 -28.984375 15.40625 -28.984375 L 6.5625 -28.984375 C 5.976562 -28.984375 5.523438 -29.15625 5.203125 -29.5 C 4.890625 -29.84375 4.757812 -30.25 4.8125 -30.71875 C 4.8125 -31.664062 5.164062 -32.757812 5.875 -34 C 6.59375 -35.238281 7.6875 -36.460938 9.15625 -37.671875 C 10.632812 -38.878906 12.53125 -39.878906 14.84375 -40.671875 C 17.164062 -41.460938 19.984375 -41.859375 23.296875 -41.859375 C 26.671875 -41.859375 29.566406 -41.460938 31.984375 -40.671875 C 34.410156 -39.878906 36.382812 -38.773438 37.90625 -37.359375 C 39.4375 -35.941406 40.554688 -34.269531 41.265625 -32.34375 C 41.972656 -30.425781 42.328125 -28.304688 42.328125 -25.984375 L 42.328125 -1.96875 C 42.328125 -1.445312 42.128906 -0.988281 41.734375 -0.59375 C 41.347656 -0.195312 40.890625 0 40.359375 0 L 31.203125 0 C 30.617188 0 30.140625 -0.195312 29.765625 -0.59375 C 29.398438 -0.988281 29.21875 -1.445312 29.21875 -1.96875 L 29.21875 -4.734375 C 28.539062 -3.734375 27.617188 -2.8125 26.453125 -1.96875 C 25.296875 -1.125 23.941406 -0.453125 22.390625 0.046875 C 20.835938 0.546875 19.035156 0.796875 16.984375 0.796875 Z M 20.6875 -8.21875 C 22.21875 -8.21875 23.601562 -8.546875 24.84375 -9.203125 C 26.082031 -9.859375 27.054688 -10.882812 27.765625 -12.28125 C 28.472656 -13.675781 28.828125 -15.425781 28.828125 -17.53125 L 28.828125 -18.640625 L 22.109375 -17.453125 C 19.640625 -17.035156 17.835938 -16.390625 16.703125 -15.515625 C 15.566406 -14.648438 15 -13.640625 15 -12.484375 C 15 -11.585938 15.265625 -10.820312 15.796875 -10.1875 C 16.328125 -9.550781 17.023438 -9.0625 17.890625 -8.71875 C 18.753906 -8.382812 19.6875 -8.21875 20.6875 -8.21875 Z M 20.6875 -8.21875 "/></g></g><g style="fill:#5005f2;fill-opacity:1;"><g transform="translate(445.551885, 508.805898)"><path style="stroke:none" d="M 23.53125 17.375 C 22.113281 17.375 20.820312 17.132812 19.65625 16.65625 C 18.5 16.1875 17.679688 15.632812 17.203125 15 C 16.734375 14.375 16.765625 13.820312 17.296875 13.34375 L 18.71875 12.078125 C 19.195312 11.660156 19.601562 11.515625 19.9375 11.640625 C 20.28125 11.773438 20.710938 11.988281 21.234375 12.28125 C 21.765625 12.570312 22.53125 12.71875 23.53125 12.71875 C 24.320312 12.71875 24.953125 12.492188 25.421875 12.046875 C 25.898438 11.597656 26.140625 11.03125 26.140625 10.34375 C 26.140625 9.71875 25.898438 9.179688 25.421875 8.734375 C 24.953125 8.285156 24.320312 8.0625 23.53125 8.0625 C 22.90625 8.0625 22.328125 8.148438 21.796875 8.328125 C 21.273438 8.515625 20.789062 8.617188 20.34375 8.640625 C 19.894531 8.671875 19.457031 8.53125 19.03125 8.21875 L 17.53125 6.640625 C 17.21875 6.316406 17.070312 5.972656 17.09375 5.609375 C 17.125 5.242188 17.296875 4.742188 17.609375 4.109375 L 19.1875 0.46875 C 14.5 -0.257812 10.707031 -2.148438 7.8125 -5.203125 C 4.914062 -8.265625 3.363281 -12.296875 3.15625 -17.296875 C 3.101562 -18.140625 3.078125 -19.207031 3.078125 -20.5 C 3.078125 -21.789062 3.101562 -22.851562 3.15625 -23.6875 C 3.3125 -27.539062 4.257812 -30.820312 6 -33.53125 C 7.738281 -36.238281 10.117188 -38.300781 13.140625 -39.71875 C 16.171875 -41.144531 19.632812 -41.859375 23.53125 -41.859375 C 27.164062 -41.859375 30.285156 -41.34375 32.890625 -40.3125 C 35.503906 -39.289062 37.613281 -38.015625 39.21875 -36.484375 C 40.820312 -34.960938 42.03125 -33.394531 42.84375 -31.78125 C 43.664062 -30.175781 44.101562 -28.769531 44.15625 -27.5625 C 44.207031 -27.039062 44.019531 -26.582031 43.59375 -26.1875 C 43.175781 -25.789062 42.703125 -25.59375 42.171875 -25.59375 L 32.140625 -25.59375 C 31.566406 -25.59375 31.117188 -25.722656 30.796875 -25.984375 C 30.484375 -26.242188 30.195312 -26.640625 29.9375 -27.171875 C 29.300781 -28.804688 28.492188 -29.960938 27.515625 -30.640625 C 26.546875 -31.328125 25.300781 -31.671875 23.78125 -31.671875 C 21.664062 -31.671875 20.039062 -30.984375 18.90625 -29.609375 C 17.78125 -28.242188 17.164062 -26.140625 17.0625 -23.296875 C 17.007812 -21.191406 17.007812 -19.320312 17.0625 -17.6875 C 17.21875 -14.789062 17.847656 -12.6875 18.953125 -11.375 C 20.054688 -10.0625 21.664062 -9.40625 23.78125 -9.40625 C 25.40625 -9.40625 26.691406 -9.757812 27.640625 -10.46875 C 28.585938 -11.175781 29.351562 -12.320312 29.9375 -13.90625 C 30.195312 -14.425781 30.484375 -14.816406 30.796875 -15.078125 C 31.117188 -15.347656 31.566406 -15.484375 32.140625 -15.484375 L 42.171875 -15.484375 C 42.703125 -15.484375 43.175781 -15.296875 43.59375 -14.921875 C 44.019531 -14.554688 44.207031 -14.082031 44.15625 -13.5 C 44.101562 -12.445312 43.691406 -11.117188 42.921875 -9.515625 C 42.160156 -7.910156 41.003906 -6.34375 39.453125 -4.8125 C 37.898438 -3.289062 35.847656 -1.988281 33.296875 -0.90625 C 30.742188 0.164062 27.597656 0.734375 23.859375 0.796875 L 22.359375 3.953125 C 22.671875 3.796875 23.101562 3.675781 23.65625 3.59375 C 24.207031 3.507812 24.640625 3.46875 24.953125 3.46875 C 26.847656 3.46875 28.363281 4.097656 29.5 5.359375 C 30.632812 6.628906 31.203125 8.289062 31.203125 10.34375 C 31.203125 12.34375 30.515625 14.015625 29.140625 15.359375 C 27.773438 16.703125 25.90625 17.375 23.53125 17.375 Z M 23.53125 17.375 "/></g></g><g style="fill:#5005f2;fill-opacity:1;"><g transform="translate(492.153693, 508.805898)"><path style="stroke:none" d="M 16.984375 0.796875 C 14.140625 0.796875 11.597656 0.253906 9.359375 -0.828125 C 7.117188 -1.910156 5.335938 -3.375 4.015625 -5.21875 C 2.703125 -7.0625 2.046875 -9.140625 2.046875 -11.453125 C 2.046875 -15.191406 3.570312 -18.148438 6.625 -20.328125 C 9.6875 -22.515625 13.742188 -24.003906 18.796875 -24.796875 L 28.671875 -26.296875 L 28.671875 -27.40625 C 28.671875 -29.300781 28.273438 -30.75 27.484375 -31.75 C 26.691406 -32.75 25.242188 -33.25 23.140625 -33.25 C 21.671875 -33.25 20.472656 -32.957031 19.546875 -32.375 C 18.628906 -31.800781 17.90625 -31.015625 17.375 -30.015625 C 16.90625 -29.328125 16.25 -28.984375 15.40625 -28.984375 L 6.5625 -28.984375 C 5.976562 -28.984375 5.523438 -29.15625 5.203125 -29.5 C 4.890625 -29.84375 4.757812 -30.25 4.8125 -30.71875 C 4.8125 -31.664062 5.164062 -32.757812 5.875 -34 C 6.59375 -35.238281 7.6875 -36.460938 9.15625 -37.671875 C 10.632812 -38.878906 12.53125 -39.878906 14.84375 -40.671875 C 17.164062 -41.460938 19.984375 -41.859375 23.296875 -41.859375 C 26.671875 -41.859375 29.566406 -41.460938 31.984375 -40.671875 C 34.410156 -39.878906 36.382812 -38.773438 37.90625 -37.359375 C 39.4375 -35.941406 40.554688 -34.269531 41.265625 -32.34375 C 41.972656 -30.425781 42.328125 -28.304688 42.328125 -25.984375 L 42.328125 -1.96875 C 42.328125 -1.445312 42.128906 -0.988281 41.734375 -0.59375 C 41.347656 -0.195312 40.890625 0 40.359375 0 L 31.203125 0 C 30.617188 0 30.140625 -0.195312 29.765625 -0.59375 C 29.398438 -0.988281 29.21875 -1.445312 29.21875 -1.96875 L 29.21875 -4.734375 C 28.539062 -3.734375 27.617188 -2.8125 26.453125 -1.96875 C 25.296875 -1.125 23.941406 -0.453125 22.390625 0.046875 C 20.835938 0.546875 19.035156 0.796875 16.984375 0.796875 Z M 20.6875 -8.21875 C 22.21875 -8.21875 23.601562 -8.546875 24.84375 -9.203125 C 26.082031 -9.859375 27.054688 -10.882812 27.765625 -12.28125 C 28.472656 -13.675781 28.828125 -15.425781 28.828125 -17.53125 L 28.828125 -18.640625 L 22.109375 -17.453125 C 19.640625 -17.035156 17.835938 -16.390625 16.703125 -15.515625 C 15.566406 -14.648438 15 -13.640625 15 -12.484375 C 15 -11.585938 15.265625 -10.820312 15.796875 -10.1875 C 16.328125 -9.550781 17.023438 -9.0625 17.890625 -8.71875 C 18.753906 -8.382812 19.6875 -8.21875 20.6875 -8.21875 Z M 27.875 -46.59375 C 26.394531 -46.59375 25.207031 -46.828125 24.3125 -47.296875 C 23.425781 -47.773438 22.613281 -48.238281 21.875 -48.6875 C 21.132812 -49.132812 20.289062 -49.359375 19.34375 -49.359375 C 18.65625 -49.359375 18.140625 -49.175781 17.796875 -48.8125 C 17.460938 -48.445312 17.160156 -48.050781 16.890625 -47.625 C 16.628906 -47.207031 16.207031 -47 15.625 -47 L 10.890625 -47 C 10.523438 -47 10.207031 -47.140625 9.9375 -47.421875 C 9.675781 -47.710938 9.546875 -48.019531 9.546875 -48.34375 C 9.546875 -49.1875 9.691406 -50.171875 9.984375 -51.296875 C 10.273438 -52.429688 10.757812 -53.523438 11.4375 -54.578125 C 12.125 -55.628906 13.035156 -56.507812 14.171875 -57.21875 C 15.304688 -57.9375 16.6875 -58.296875 18.3125 -58.296875 C 19.789062 -58.296875 20.988281 -58.054688 21.90625 -57.578125 C 22.832031 -57.109375 23.660156 -56.648438 24.390625 -56.203125 C 25.128906 -55.753906 25.945312 -55.53125 26.84375 -55.53125 C 27.582031 -55.53125 28.097656 -55.722656 28.390625 -56.109375 C 28.679688 -56.503906 28.96875 -56.898438 29.25 -57.296875 C 29.539062 -57.691406 29.976562 -57.890625 30.5625 -57.890625 L 35.296875 -57.890625 C 35.722656 -57.890625 36.066406 -57.757812 36.328125 -57.5 C 36.585938 -57.238281 36.71875 -56.894531 36.71875 -56.46875 C 36.71875 -55.625 36.554688 -54.648438 36.234375 -53.546875 C 35.921875 -52.441406 35.421875 -51.347656 34.734375 -50.265625 C 34.054688 -49.191406 33.148438 -48.3125 32.015625 -47.625 C 30.890625 -46.9375 29.507812 -46.59375 27.875 -46.59375 Z M 27.875 -46.59375 "/></g></g><g style="fill:#5005f2;fill-opacity:1;"><g transform="translate(538.755501, 508.805898)"><path style="stroke:none" d="M 24.09375 0.796875 C 19.664062 0.796875 15.9375 0.0859375 12.90625 -1.328125 C 9.882812 -2.753906 7.566406 -4.796875 5.953125 -7.453125 C 4.347656 -10.117188 3.441406 -13.296875 3.234375 -16.984375 C 3.179688 -18.035156 3.15625 -19.234375 3.15625 -20.578125 C 3.15625 -21.921875 3.179688 -23.09375 3.234375 -24.09375 C 3.441406 -27.832031 4.390625 -31.015625 6.078125 -33.640625 C 7.765625 -36.273438 10.117188 -38.300781 13.140625 -39.71875 C 16.171875 -41.144531 19.820312 -41.859375 24.09375 -41.859375 C 28.40625 -41.859375 32.078125 -41.144531 35.109375 -39.71875 C 38.140625 -38.300781 40.492188 -36.273438 42.171875 -33.640625 C 43.859375 -31.015625 44.804688 -27.832031 45.015625 -24.09375 C 45.066406 -23.09375 45.09375 -21.921875 45.09375 -20.578125 C 45.09375 -19.234375 45.066406 -18.035156 45.015625 -16.984375 C 44.804688 -13.296875 43.898438 -10.117188 42.296875 -7.453125 C 40.691406 -4.796875 38.375 -2.753906 35.34375 -1.328125 C 32.3125 0.0859375 28.5625 0.796875 24.09375 0.796875 Z M 24.09375 -8.84375 C 26.457031 -8.84375 28.179688 -9.550781 29.265625 -10.96875 C 30.347656 -12.394531 30.96875 -14.53125 31.125 -17.375 C 31.175781 -18.164062 31.203125 -19.21875 31.203125 -20.53125 C 31.203125 -21.851562 31.175781 -22.90625 31.125 -23.6875 C 30.96875 -26.476562 30.347656 -28.597656 29.265625 -30.046875 C 28.179688 -31.492188 26.457031 -32.21875 24.09375 -32.21875 C 21.820312 -32.21875 20.117188 -31.492188 18.984375 -30.046875 C 17.859375 -28.597656 17.242188 -26.476562 17.140625 -23.6875 C 17.085938 -22.90625 17.0625 -21.851562 17.0625 -20.53125 C 17.0625 -19.21875 17.085938 -18.164062 17.140625 -17.375 C 17.242188 -14.53125 17.859375 -12.394531 18.984375 -10.96875 C 20.117188 -9.550781 21.820312 -8.84375 24.09375 -8.84375 Z M 24.09375 -8.84375 "/></g></g><g style="fill:#5005f2;fill-opacity:1;"><g transform="translate(587.031886, 508.805898)"><path style="stroke:none" d=""/></g></g></g></svg>